<mxfile host="Electron" agent="Mozilla/5.0 (Windows NT 10.0; Win64; x64) AppleWebKit/537.36 (KHTML, like Gecko) draw.io/28.1.2 Chrome/138.0.7204.243 Electron/37.4.0 Safari/537.36" version="28.1.2">
  <diagram id="aws-academic" name="AWS Academic Data">
    <mxGraphModel dx="1042" dy="626" grid="1" gridSize="10" guides="1" tooltips="1" connect="1" arrows="1" fold="1" page="1" pageScale="1" pageWidth="827" pageHeight="1169" math="0" shadow="0">
      <root>
        <mxCell id="0" />
        <mxCell id="1" parent="0" />
        <mxCell id="10" value="Armazenamento" parent="1" edge="1">
          <mxGeometry relative="1" as="geometry">
            <mxPoint x="250" y="190" as="sourcePoint" />
            <mxPoint x="170" y="280" as="targetPoint" />
            <Array as="points" />
          </mxGeometry>
        </mxCell>
        <mxCell id="11" value="Evento: Novo arquivo" parent="1" edge="1">
          <mxGeometry relative="1" as="geometry">
            <mxPoint x="190.1400000000001" y="389.8149474474476" as="sourcePoint" />
            <mxPoint x="420" y="360" as="targetPoint" />
            <Array as="points">
              <mxPoint x="220" y="420" />
              <mxPoint x="300" y="420" />
              <mxPoint x="350" y="420" />
            </Array>
          </mxGeometry>
        </mxCell>
        <mxCell id="14" parent="1" edge="1">
          <mxGeometry relative="1" as="geometry">
            <mxPoint x="738.6782352941176" y="470" as="sourcePoint" />
            <mxPoint x="627.5017647058825" y="560" as="targetPoint" />
          </mxGeometry>
        </mxCell>
        <mxCell id="15" parent="1" edge="1">
          <mxGeometry relative="1" as="geometry">
            <mxPoint x="534" y="620" as="sourcePoint" />
            <mxPoint x="420" y="680" as="targetPoint" />
          </mxGeometry>
        </mxCell>
        <mxCell id="kyPaYELivYIFZAQlublA-15" value="" style="verticalLabelPosition=bottom;html=1;verticalAlign=top;strokeWidth=1;align=center;outlineConnect=0;dashed=0;outlineConnect=0;shape=mxgraph.aws3d.end_user;strokeColor=none;fillColor=#777777;aspect=fixed;" parent="1" vertex="1">
          <mxGeometry x="35.5" y="10" width="49" height="100.46" as="geometry" />
        </mxCell>
        <mxCell id="kyPaYELivYIFZAQlublA-20" value="Aluno ou professor" style="text;strokeColor=none;align=center;fillColor=none;html=1;verticalAlign=middle;whiteSpace=wrap;rounded=0;" parent="1" vertex="1">
          <mxGeometry x="30" y="110.46000000000001" width="60" height="30" as="geometry" />
        </mxCell>
        <mxCell id="kyPaYELivYIFZAQlublA-24" value="" style="edgeStyle=none;orthogonalLoop=1;jettySize=auto;html=1;rounded=0;" parent="1" edge="1">
          <mxGeometry width="80" relative="1" as="geometry">
            <mxPoint x="100" y="70" as="sourcePoint" />
            <mxPoint x="230" y="130" as="targetPoint" />
            <Array as="points">
              <mxPoint x="180" y="110" />
            </Array>
          </mxGeometry>
        </mxCell>
        <mxCell id="kyPaYELivYIFZAQlublA-25" value="Entrada de dados: Upload trabalho ou relatório no portal acadêmico" style="text;strokeColor=none;align=center;fillColor=none;html=1;verticalAlign=middle;whiteSpace=wrap;rounded=0;" parent="1" vertex="1">
          <mxGeometry x="133.38" y="45.23000000000001" width="100" height="30" as="geometry" />
        </mxCell>
        <mxCell id="kyPaYELivYIFZAQlublA-31" value="EC2 Web&lt;br&gt;Sistema Acadêmico" style="text;strokeColor=none;align=center;fillColor=none;html=1;verticalAlign=middle;whiteSpace=wrap;rounded=0;" parent="1" vertex="1">
          <mxGeometry x="330" y="124" width="60" height="30" as="geometry" />
        </mxCell>
        <mxCell id="kyPaYELivYIFZAQlublA-35" value="" style="outlineConnect=0;dashed=0;verticalLabelPosition=bottom;verticalAlign=top;align=center;html=1;shape=mxgraph.aws3.lambda_function;fillColor=#F58534;gradientColor=none;" parent="1" vertex="1">
          <mxGeometry x="430" y="320" width="90" height="82" as="geometry" />
        </mxCell>
        <mxCell id="kyPaYELivYIFZAQlublA-36" value="Lambda (Processamento Automático)" style="text;strokeColor=none;align=center;fillColor=none;html=1;verticalAlign=middle;whiteSpace=wrap;rounded=0;" parent="1" vertex="1">
          <mxGeometry x="439" y="270" width="60" height="30" as="geometry" />
        </mxCell>
        <mxCell id="kyPaYELivYIFZAQlublA-38" value="" style="outlineConnect=0;dashed=0;verticalLabelPosition=bottom;verticalAlign=top;align=center;html=1;shape=mxgraph.aws3.ec2;fillColor=#F58534;gradientColor=none;" parent="1" vertex="1">
          <mxGeometry x="240" y="90" width="76.5" height="93" as="geometry" />
        </mxCell>
        <mxCell id="kyPaYELivYIFZAQlublA-39" value="" style="verticalLabelPosition=bottom;html=1;verticalAlign=top;strokeWidth=1;align=center;outlineConnect=0;dashed=0;outlineConnect=0;shape=mxgraph.aws3d.application_server;fillColor=#ECECEC;strokeColor=#5E5E5E;aspect=fixed;strokeColor2=#292929;" parent="1" vertex="1">
          <mxGeometry x="680" y="320" width="123" height="124" as="geometry" />
        </mxCell>
        <mxCell id="kyPaYELivYIFZAQlublA-42" value="" style="outlineConnect=0;dashed=0;verticalLabelPosition=bottom;verticalAlign=top;align=center;html=1;shape=mxgraph.aws3.s3;fillColor=#E05243;gradientColor=none;" parent="1" vertex="1">
          <mxGeometry x="120" y="278.5" width="76.5" height="93" as="geometry" />
        </mxCell>
        <mxCell id="kyPaYELivYIFZAQlublA-27" value="S3 (Armazenamento Inicial)" style="text;strokeColor=none;align=center;fillColor=none;html=1;verticalAlign=middle;whiteSpace=wrap;rounded=0;" parent="1" vertex="1">
          <mxGeometry x="30" y="310" width="60" height="30" as="geometry" />
        </mxCell>
        <mxCell id="kyPaYELivYIFZAQlublA-43" value="" style="sketch=0;outlineConnect=0;fontColor=#232F3E;gradientColor=none;fillColor=#7AA116;strokeColor=none;dashed=0;verticalLabelPosition=bottom;verticalAlign=top;align=center;html=1;fontSize=12;fontStyle=0;aspect=fixed;pointerEvents=1;shape=mxgraph.aws4.bucket;" parent="1" vertex="1">
          <mxGeometry x="534" y="540" width="75" height="78" as="geometry" />
        </mxCell>
        <mxCell id="kyPaYELivYIFZAQlublA-44" value="S3&lt;br&gt;Armazenamento Organizado" style="text;strokeColor=none;align=center;fillColor=none;html=1;verticalAlign=middle;whiteSpace=wrap;rounded=0;" parent="1" vertex="1">
          <mxGeometry x="640" y="580" width="60" height="30" as="geometry" />
        </mxCell>
        <mxCell id="kyPaYELivYIFZAQlublA-45" parent="1" edge="1">
          <mxGeometry relative="1" as="geometry">
            <mxPoint x="530" y="370" as="sourcePoint" />
            <mxPoint x="660" y="380" as="targetPoint" />
            <Array as="points" />
          </mxGeometry>
        </mxCell>
        <mxCell id="kyPaYELivYIFZAQlublA-46" value="EC2&lt;br&gt;Processamento Avançado" style="text;strokeColor=none;align=center;fillColor=none;html=1;verticalAlign=middle;whiteSpace=wrap;rounded=0;" parent="1" vertex="1">
          <mxGeometry x="711.5" y="278.5" width="60" height="30" as="geometry" />
        </mxCell>
        <mxCell id="kyPaYELivYIFZAQlublA-47" value="" style="outlineConnect=0;dashed=0;verticalLabelPosition=bottom;verticalAlign=top;align=center;html=1;shape=mxgraph.aws3.user;fillColor=#D2D3D3;gradientColor=none;" parent="1" vertex="1">
          <mxGeometry x="360" y="680" width="45" height="63" as="geometry" />
        </mxCell>
        <mxCell id="kyPaYELivYIFZAQlublA-48" value="" style="outlineConnect=0;dashed=0;verticalLabelPosition=bottom;verticalAlign=top;align=center;html=1;shape=mxgraph.aws3.user;fillColor=#D2D3D3;gradientColor=none;" parent="1" vertex="1">
          <mxGeometry x="300" y="680" width="45" height="63" as="geometry" />
        </mxCell>
        <mxCell id="kyPaYELivYIFZAQlublA-49" value="Dados Organizados disponíveis" style="text;strokeColor=none;align=center;fillColor=none;html=1;verticalAlign=middle;whiteSpace=wrap;rounded=0;" parent="1" vertex="1">
          <mxGeometry x="541.5" y="650" width="60" height="30" as="geometry" />
        </mxCell>
        <mxCell id="kyPaYELivYIFZAQlublA-50" value="Professores/Admin&lt;br&gt;Acessam relatórios" style="text;strokeColor=none;align=center;fillColor=none;html=1;verticalAlign=middle;whiteSpace=wrap;rounded=0;" parent="1" vertex="1">
          <mxGeometry x="320" y="760" width="60" height="30" as="geometry" />
        </mxCell>
        <mxCell id="kyPaYELivYIFZAQlublA-52" value="Validação de formato&lt;br&gt;Extração de metadados&lt;br&gt;Compactação" style="text;strokeColor=none;align=center;fillColor=none;html=1;verticalAlign=middle;whiteSpace=wrap;rounded=0;" parent="1" vertex="1">
          <mxGeometry x="404" y="420" width="130" height="30" as="geometry" />
        </mxCell>
        <mxCell id="qBYOOOOYFA2-pkwA6Hqc-15" value="Processamento Pesado&lt;br&gt;(Opcional)" style="text;strokeColor=none;align=center;fillColor=none;html=1;verticalAlign=middle;whiteSpace=wrap;rounded=0;" vertex="1" parent="1">
          <mxGeometry x="567.5" y="330" width="60" height="30" as="geometry" />
        </mxCell>
        <mxCell id="qBYOOOOYFA2-pkwA6Hqc-16" value="Arquivos Processados" edge="1" parent="1">
          <mxGeometry relative="1" as="geometry">
            <mxPoint x="450" y="470" as="sourcePoint" />
            <mxPoint x="510" y="560" as="targetPoint" />
            <Array as="points" />
          </mxGeometry>
        </mxCell>
      </root>
    </mxGraphModel>
  </diagram>
</mxfile>
